<svg xmlns="http://www.w3.org/2000/svg" fill="none" viewBox="0 0 24 24" stroke-width="1.5"
    stroke="currentColor" class="w-6 h-6">

    <path
        d="M726 2031 c42 -38 542 -395 554 -395 15 0 563 395 556 401 -1 2 -127
-44 -279 -101 l-277 -105 -275 104 c-151 58 -278 105 -282 105 -4 0 -3 -4 3
-9z" />
    <path
        d="M1217 1995 c-41 -14 -87 -51 -87 -69 0 -6 34 -24 75 -40 l74 -28 76
27 c41 15 75 33 75 40 0 20 -57 63 -98 75 -48 13 -68 12 -115 -5z" />
    <path
        d="M655 1785 l-25 -24 0 -601 0 -601 25 -24 24 -25 601 0 601 0 24 25
25 24 0 601 0 601 -25 24 c-23 24 -28 25 -177 25 l-153 0 -143 -105 c-79 -58
-147 -105 -151 -105 -5 0 -73 47 -152 105 l-144 105 -153 0 c-149 0 -154 -1
-177 -25z m393 -242 c72 -54 94 -147 51 -223 -40 -71 -147 -102 -219 -65 -113
58 -116 229 -5 293 50 28 131 26 173 -5z m637 4 c111 -62 108 -234 -5 -292
-72 -37 -179 -6 -219 65 -83 148 76 310 224 227z m-40 -631 c92 -39 99 -173
12 -226 -30 -19 -52 -20 -375 -20 -379 0 -385 1 -422 63 -39 64 -13 154 53
182 48 21 682 21 732 1z" />
    <path
        d="M984 897 c-3 -8 -3 -56 -2 -108 l3 -94 63 -3 62 -3 0 111 0 110 -60
0 c-41 0 -62 -4 -66 -13z" />
    <path d="M1140 800 l0 -111 63 3 62 3 0 105 0 105 -62 3 -63 3 0 -111z" />
    <path
        d="M1294 897 c-3 -8 -3 -56 -2 -108 l3 -94 63 -3 62 -3 0 111 0 110 -60
0 c-41 0 -62 -4 -66 -13z" />
    <path d="M1450 800 l0 -111 63 3 62 3 0 105 0 105 -62 3 -63 3 0 -111z" />
    <path
        d="M895 870 c-41 -43 -41 -97 0 -140 16 -16 37 -30 47 -30 16 0 18 10
18 100 0 90 -2 100 -18 100 -10 0 -31 -14 -47 -30z" />
    <path
        d="M1600 800 c0 -90 2 -100 18 -100 10 0 31 14 47 30 22 23 30 40 30 70
0 30 -8 47 -30 70 -16 16 -37 30 -47 30 -16 0 -18 -10 -18 -100z" />
    <path
        d="M408 1372 c-51 -31 -60 -67 -56 -228 l3 -146 38 -34 c38 -35 38 -35
125 -32 l87 3 3 228 2 227 -87 0 c-65 0 -95 -5 -115 -18z" />
    <path
        d="M1952 1163 l3 -228 87 -3 c87 -3 87 -3 125 32 l38 34 3 146 c5 216
-16 246 -172 246 l-86 0 2 -227z" />

</svg>